<svg xmlns="http://www.w3.org/2000/svg" width="272" height="60" fill="none"><path fill="#656565" d="M176.145 19.856c-.079-1.421.987-2.645 2.408-2.724 1.421-.079 2.645.987 2.724 2.408.078 1.421-.987 2.645-2.408 2.724h-.158a2.478 2.478 0 0 1-2.566-2.408zm.197 4.579h4.698v16.973h-4.698V24.435zM50.658 18.79H41.58v22.658h9.71c5.093 0 7.816-2.645 7.816-6.276.119-2.882-2.092-5.369-4.973-5.487v-.237c2.408-.355 4.184-2.448 4.105-4.855-.04-3.395-2.566-5.803-7.579-5.803zm2.684 6.553c0 1.776-1.54 2.881-3.394 2.881l-3.632.04v-5.645h3.71c2.132 0 3.316.947 3.316 2.724zm.71 9.315c0 1.698-1.104 2.803-3.789 2.803h-3.947v-6h3.947c1.816-.276 3.474.987 3.75 2.803.04.118.04.276.04.394zm7.343 6.79h4.776l-.079-22.658h-4.697v22.658zM68.658 33c0-5.25 3.198-8.764 8.369-8.764 5.131 0 8.368 3.514 8.368 8.764s-3.197 8.763-8.368 8.763S68.658 38.25 68.658 33zm11.921 0c0-2.961-1.223-5.132-3.552-5.132-2.33 0-3.593 2.17-3.593 5.132 0 2.96 1.224 5.131 3.593 5.131 2.368 0 3.552-2.171 3.552-5.131zM95.5 24.237c-5.17 0-8.329 3.553-8.329 8.764 0 5.21 3.119 8.763 8.33 8.763 4.46 0 7.302-2.645 7.539-6.553h-4.46c-.12 1.618-1.461 2.882-3.08 2.842-2.21 0-3.631-1.934-3.631-5.092 0-3.158 1.42-5.053 3.631-5.053 1.619-.04 2.96 1.224 3.08 2.842h4.46c-.158-3.947-3.119-6.513-7.54-6.513zm10.027-5.447h4.736v12.079h.237l5.448-6.434h5.407l-6.315 7.342 6.631 9.631h-5.526l-4.618-6.868-1.264 1.46v5.448h-4.697V18.79h-.039zM130 24.237c-5.171 0-8.329 3.553-8.329 8.764 0 5.21 3.119 8.763 8.369 8.763 4.5 0 7.342-2.645 7.539-6.553h-4.421c-.118 1.618-1.46 2.882-3.079 2.842-2.21 0-3.631-1.934-3.631-5.092 0-3.158 1.421-5.053 3.631-5.053 1.619-.04 3 1.224 3.079 2.842h4.421c-.158-3.947-3.158-6.513-7.579-6.513zm14.724 17.21h-4.697V18.79h4.578v8.684h.198c.789-2.092 2.842-3.395 5.092-3.237 3.513 0 5.882 2.408 5.882 6.395v10.816h-4.737V31.46c.237-1.579-.869-3.04-2.448-3.276-.197-.04-.394-.04-.592-.04-1.737-.079-3.237 1.263-3.316 3v.474l.04 9.829zm19.737-9.986c-3.356.316-6.395 1.46-6.395 5.25 0 3.355 2.408 5.053 5.645 5.053a5.234 5.234 0 0 0 4.973-2.685h.119v2.369h4.46V29.96c0-4.066-3.434-5.763-7.223-5.763-4.066 0-6.75 1.934-7.421 5.052l4.342.356a2.832 2.832 0 0 1 3-1.895c1.618 0 2.526.829 2.526 2.21.04 1.106-1.105 1.224-4.026 1.54zm4.105 2.013v1.895c-.118 1.816-1.658 3.158-3.474 3.079h-.079c-1.46 0-2.486-.671-2.486-1.974 0-1.302 1.105-1.973 2.763-2.21a12.826 12.826 0 0 0 3.276-.79zm15.553 7.974h4.776l-.079-9.83c-.197-1.696 1.026-3.236 2.724-3.473.158 0 .315-.04.473 0a2.884 2.884 0 0 1 3.04 2.763c0 .198 0 .356-.04.553v9.987h4.737V30.632c0-3.947-2.329-6.395-5.881-6.395a5.143 5.143 0 0 0-5.132 3.237h-.197v-3h-4.5v16.974h.079zm67.539-17.014h-4.5v16.974h4.737V31.224c-.119-1.185.552-2.33 1.618-2.843.355-.157.75-.276 1.145-.276a2.464 2.464 0 0 1 2.447 1.697c.119.356.158.711.119 1.066v10.58h4.579V31.065a2.659 2.659 0 0 1 2.368-2.921h.395c1.381-.08 2.566 1.026 2.645 2.407v10.896h4.736V30.118c.079-3.04-2.289-5.566-5.329-5.644a5.542 5.542 0 0 0-5.052 3h-.276c-.593-2.014-2.527-3.356-4.619-3.237-2.131-.119-4.066 1.223-4.737 3.237h-.197l-.079-3.04zm-33-.197c-5.171 0-8.329 3.552-8.329 8.763 0 5.21 3.118 8.763 8.408 8.763 4.5 0 7.342-2.645 7.539-6.553h-4.421c-.118 1.619-1.46 2.882-3.079 2.843-2.171 0-3.631-1.935-3.631-5.093s1.421-5.052 3.631-5.052c1.619-.04 3 1.223 3.079 2.842h4.342c-.118-3.948-3.118-6.513-7.539-6.513zm-14.921 12.947a2.67 2.67 0 0 0 0 3.75 2.669 2.669 0 0 0 3.75 0 2.67 2.67 0 0 0 0-3.75 2.658 2.658 0 0 0-1.895-.79 3.023 3.023 0 0 0-1.855.79zM228.013 33c0-5.25 3.198-8.763 8.369-8.763 5.171 0 8.329 3.513 8.329 8.763s-3.198 8.763-8.329 8.763c-5.132 0-8.369-3.513-8.369-8.763zm11.921 0c0-2.96-1.223-5.132-3.552-5.132-2.329 0-3.592 2.171-3.592 5.132 0 2.96 1.223 5.132 3.592 5.132 2.368 0 3.552-2.172 3.552-5.132zM2.658 25.974l-1.382 1.381c-1.579 1.5-1.618 3.987-.118 5.566l.118.118 11.092 11.21c.277.277.553.514.908.672V31.303l-10.618-5.33zm25.026 0 1.382 1.381c1.54 1.5 1.618 3.987.118 5.566l-.118.118-11.132 11.172c-.276.276-.552.513-.908.67V31.304l10.658-5.33zM25 23.132l-6.947-6.947c-1.54-1.54-4.027-1.58-5.566-.08-.04.04-.079.04-.079.08l-6.987 6.947 9.75 4.855 9.83-4.855z"/></svg>