<svg xmlns="http://www.w3.org/2000/svg" width="24" height="24" fill="none"><path fill="#fff" fill-rule="evenodd" d="M5 4a1 1 0 0 1 1 1v9a4 4 0 0 0 4 4h3a1 1 0 1 1 0 2h-3a6 6 0 0 1-6-6V5a1 1 0 0 1 1-1zm5 1a1 1 0 0 1 1-1h3a6 6 0 0 1 6 6v9a1 1 0 1 1-2 0v-9a4 4 0 0 0-4-4h-3a1 1 0 0 1-1-1z" clip-rule="evenodd"/><path fill="#fff" fill-rule="evenodd" d="M4.293 4.293a1 1 0 0 1 1.414 0l2.5 2.5a1 1 0 0 1-1.414 1.414L5 6.414 3.207 8.207a1 1 0 0 1-1.414-1.414l2.5-2.5zm11 11a1 1 0 0 1 1.414 0L19 17.586l2.293-2.293a1 1 0 0 1 1.414 1.414l-3 3a1 1 0 0 1-1.414 0l-3-3a1 1 0 0 1 0-1.414z" clip-rule="evenodd"/></svg>