<svg xmlns="http://www.w3.org/2000/svg" width="201" height="60" fill="none"><g fill="#656565" clip-path="url(#a)"><path d="m40.3 20.799-5.328 5.255-9.67-9.875-9.535 9.58-5.51-5.611 14.74-14.747L40.3 20.799zm-30.083 19.48 5.259-5.324 9.504 9.934c3.84-3.275 6.798-6.807 10.123-9.83l5.23 5.398c-4.92 4.915-10.028 10.06-14.997 15.046l-15.12-15.224zm65.478-20.481 1.516 1.057a4.907 4.907 0 0 1 1.715 1.969c.385.798.55 1.688.476 2.574a4.942 4.942 0 0 1-2.92 4.108 8.315 8.315 0 0 1-3.1.844c-3.442.105-6.897.04-10.49.04V10.493c3.96-.025 7.952-.517 11.838.563 3.666 1.011 4.709 5.116 2.182 7.98-.256.287-.687.423-1.217.761zm-8.84 6.964c2.322-.157 4.519.335 6.712-.324.47-.1.89-.364 1.18-.747.29-.384.436-.861.407-1.341a1.976 1.976 0 0 0-.111-.762 1.94 1.94 0 0 0-1.758-1.287c-2.125-.142-4.273-.04-6.433-.04v4.5h.003zm-.051-8.242c1.877.105 3.743.278 5.584-.09a1.977 1.977 0 0 0 1.71-2.008 1.846 1.846 0 0 0-1.49-1.939 12.913 12.913 0 0 0-5.804-.054v4.091zm73.091-8h3.589l9.02 11.818.51-.167V10.563h3.995v19.662h-3.507l-9.126-11.93-.541.148c-.217 1.898-.071 3.821-.094 5.736-.026 1.912 0 3.938 0 6.06h-3.838l-.008-19.719zm-41.191 7.776v11.92h-4.04V10.554h3.732c3.12 3.835 5.903 7.992 9.126 11.793l.407-.196V10.59h3.877v19.634h-3.393L99.22 18.162l-.516.134zM183.43 30.21V10.548h14.747v3.804h-10.311v4.19h9.094v3.592h-9.094v4.505h10.294v3.557l-14.73.014zm-47.225.11h-4.256l-1.912-4.377h-8.521l-1.875 4.338h-4.134c2.852-6.71 5.601-13.247 8.371-19.804h3.928l8.399 19.844zm-13.097-8.278c1.969.259 3.565.41 5.337-.113l-2.419-5.85h-.485l-2.433 5.963zm56.208-8.797a4.621 4.621 0 0 1-.43.75c-.627.713-1.279 1.4-1.971 2.15-1.855-1.23-3.687-2.494-6.003-2.048a5.842 5.842 0 0 0-3.57 2.162 6.991 6.991 0 0 0 .191 8.639c2.239 2.594 5.131 2.548 9.581-.173.408.377.875.767 1.305 1.184.427.418.738.779 1.085 1.157-2.572 4.07-9.908 4.951-14.142 1.474-4.536-3.719-5.006-10.65-1.148-15.12 3.644-4.218 12.29-4.005 15.102-.175zM62.86 44.176V42.48h76.644c.046.511.089 1.02.151 1.696H62.861zm112.098-7.61c2.444 0 4.72-.02 7.014 0 1.533 0 2.775.582 3.419 2.087.643 1.51.196 2.765-.929 3.858a4.06 4.06 0 0 0-.408.549c.186.19.385.36.596.517 1.39.79 2.037 2.014 1.755 3.562-.282 1.549-1.376 2.708-3.012 2.867-2.74.29-5.501.409-8.441.605l.006-14.045zm2.276 11.803c1.846-.082 3.581-.082 5.296-.267a1.82 1.82 0 0 0 1.137-.605 1.838 1.838 0 0 0 0-2.42 1.807 1.807 0 0 0-1.137-.605c-1.772-.157-3.564-.046-5.316-.046l.02 3.944zm0-6.073a39.6 39.6 0 0 0 4.248-.04c.963-.111 1.789-.705 1.837-1.838.049-1.134-.646-1.798-1.709-1.867-1.433-.093-2.883-.025-4.379-.025v3.77h.003zM88.29 10.57v19.703h-3.808V10.57h3.809zm83.736 39.81h-2.333l-1.522-3.457h-6.681l-1.629 3.475h-2.203c2.037-4.739 4.046-9.344 6.086-14.063l2.134-.113c2.028 4.676 4.042 9.312 6.148 14.159zm-4.749-5.636-2.496-5.735c-.912 2.187-1.63 3.892-2.399 5.735h4.895zm21.746 3.614 1.037-1.4c1.222.525 2.316 1.192 3.524 1.48 1.205.286 2.445.298 3.507-1l.074-1.64a5.588 5.588 0 0 0-1.196-.818c-1.222-.41-2.445-.705-3.667-1.12-2.074-.712-2.96-1.977-2.849-3.92a3.883 3.883 0 0 1 3.308-3.608c2.191-.35 4.293-.034 6.228 1.574l-1.029 1.523c-2.005-.75-3.943-2.279-6.082-.27v1.991c1.028.41 2.068.819 3.125 1.2.567.204 1.179.266 1.744.474 2.037.753 2.997 2.204 2.76 4.19a4.004 4.004 0 0 1-1.188 2.313c-.641.616-1.467 1-2.347 1.09-2.493.287-4.855-.076-6.949-2.06zM5.57 25.36l5.233 5.222-5.433 5.19-5.296-5.36 5.496-5.051z"/><path d="m25.57 25.125 5.014 5.034-5.49 5.35-4.889-4.966 5.365-5.418zM44.937 35.63l-5.042-5.067 5.33-5.324 4.946 5.133-5.234 5.259zm100.664 1.055h2.183V48.32h7.233v2.003h-9.418v-13.64h.002z"/></g><defs><clipPath id="a"><path fill="#fff" d="M.667 0h200v60h-200z"/></clipPath></defs></svg>