<svg xmlns="http://www.w3.org/2000/svg" width="136" height="38" fill="none"><path fill="#000" d="M35.78 37.19h-5.576v-26.3h5.576v26.3zm20.15-26.818c3.08 0 5.594 1.046 7.543 3.139 1.946 2.092 2.922 4.753 2.922 7.978v15.699h-5.577V22.313c0-2.025-.673-3.699-2.019-5.02-1.346-1.32-3.008-1.98-4.99-1.98-2.232 0-4.055.66-5.47 1.98-1.417 1.321-2.126 2.995-2.126 5.02v14.875h-5.577v-26.3h5.577v6.794c.743-2.263 1.974-4.049 3.693-5.353 1.715-1.305 3.726-1.957 6.028-1.957h-.003zm27.85 0c4.355 0 7.896 1.511 10.622 4.53 2.725 3.022 3.84 6.674 3.345 10.965H75.283c.39 2.128 1.399 3.854 3.028 5.174 1.629 1.32 3.591 1.981 5.893 1.981 1.77 0 3.354-.421 4.753-1.26a8.794 8.794 0 0 0 3.266-3.425l4.674 2.009c-1.203 2.23-2.922 4.013-5.15 5.353-2.23 1.34-4.798 2.008-7.703 2.008-4.07 0-7.488-1.304-10.25-3.91-2.762-2.606-4.144-5.851-4.144-9.729 0-3.878 1.354-7.128 4.063-9.755 2.708-2.626 6.061-3.938 10.065-3.938l.003-.003zm0 4.685c-2.054 0-3.832.609-5.338 1.829-1.505 1.217-2.506 2.804-3 4.76H92.12c-.46-1.956-1.444-3.543-2.946-4.76-1.506-1.217-3.303-1.829-5.392-1.829zm29.385-4.685c3.258 0 5.913.824 7.965 2.47 2.053 1.647 3.082 4.017 3.082 7.104V37.19h-5.577v-7c-1.665 5.01-5.01 7.516-10.037 7.516-2.339 0-4.285-.677-5.844-2.033-1.558-1.356-2.335-3.13-2.335-5.326 0-2.573.936-4.505 2.815-5.79 1.876-1.286 4.267-2.085 7.169-2.395l5.257-.516c1.983-.171 2.975-1.03 2.975-2.573 0-1.27-.505-2.283-1.514-3.036-1.009-.755-2.327-1.133-3.956-1.133s-3.073.413-4.223 1.236c-1.149.824-1.884 2.025-2.203 3.604l-5.524-1.288c.496-2.47 1.823-4.435 3.984-5.895 2.159-1.456 4.814-2.187 7.966-2.187v-.003zm-2.762 22.957c2.302 0 4.248-.747 5.84-2.239 1.593-1.492 2.389-3.234 2.389-5.226v-1.44c-.423.688-1.452 1.114-3.081 1.285l-5.151.617c-1.345.174-2.417.557-3.213 1.158-.796.6-1.194 1.416-1.194 2.446 0 1.03.398 1.853 1.194 2.47.796.617 1.868.927 3.213.927l.003.002zM26.362 37.19H.604v-26.3h5.894v21.207h19.864v5.095zm103.107-26.818c2.903 0 5.257-2.281 5.257-5.095 0-2.814-2.354-5.095-5.257-5.095-2.903 0-5.257 2.281-5.257 5.095 0 2.814 2.354 5.095 5.257 5.095z"/></svg>