<svg xmlns="http://www.w3.org/2000/svg" width="192" height="48" fill="none"><path fill="#111" d="M44.598 18.89c7.452-.071 13.64 6.081 13.635 13.64a13.74 13.74 0 0 1-4.016 9.69 13.64 13.64 0 0 1-19.335-.022 13.74 13.74 0 0 1-3.994-9.698c.003-7.486 6.212-13.737 13.71-13.61zm10.487 13.683c.117-5.779-4.691-10.605-10.49-10.602-5.797.002-10.554 4.558-10.591 10.534a10.556 10.556 0 0 0 3.036 7.498 10.5 10.5 0 0 0 7.446 3.125c5.845.064 10.7-4.793 10.599-10.555zM7.762 24.51c-.202-1.09-.392-2.133-.589-3.174-.035-.193.066-.275.214-.37a13.113 13.113 0 0 1 4.909-1.905 13.761 13.761 0 0 1 5.003.055 13.52 13.52 0 0 1 6.318 3.113 13.64 13.64 0 0 1 3.638 5.006 13.674 13.674 0 0 1-.69 12.043 13.627 13.627 0 0 1-4.184 4.556 13.212 13.212 0 0 1-8.171 2.39 13.31 13.31 0 0 1-7.942-2.905 13.532 13.532 0 0 1-5.095-8.578c-.504-2.836-.035-5.578 1.204-8.165.296-.625.649-1.222 1.053-1.783.312 1.881.703 3.636.851 5.41.092 1.084-.185 2.196-.103 3.306a10.126 10.126 0 0 0 2.69 6.15 10.206 10.206 0 0 0 5.91 3.305 10.038 10.038 0 0 0 7.992-1.807c3.23-2.352 4.691-5.562 4.39-9.515-.234-3.058-1.618-5.513-4.02-7.416A10.152 10.152 0 0 0 14.225 22a9.912 9.912 0 0 0-5.937 2.168c-.138.1-.29.188-.525.344zm55.445.435c.368 1.564.523 3.14.833 4.683.152.776-.078 1.489-.122 2.227a10.525 10.525 0 0 0 1.583 6.244 10.564 10.564 0 0 0 4.253 3.9 10.53 10.53 0 0 0 5.662 1.08 10.77 10.77 0 0 0 4.189-1.306 10.486 10.486 0 0 0 4.538-4.976 10.563 10.563 0 0 0 .578-6.79 10.539 10.539 0 0 0-3.688-5.725 10.23 10.23 0 0 0-6.914-2.298 9.963 9.963 0 0 0-5.96 2.103c-.183.143-.373.28-.652.49-.172-1.177-.334-2.252-.488-3.336-.035-.235.187-.273.328-.36 2.756-1.705 5.744-2.283 8.946-1.881 3.333.416 6.098 1.952 8.333 4.393a13.421 13.421 0 0 1 3.284 6.762c.575 3.114.035 6.03-1.407 8.812a13.244 13.244 0 0 1-6.394 6.047 13.352 13.352 0 0 1-9.851.574 13.175 13.175 0 0 1-5.864-3.81c-1.705-1.882-2.87-4.048-3.319-6.54-.647-3.59-.112-6.988 1.916-10.086.045-.063.094-.124.144-.185.011-.014.037-.012.072-.021zm48.088 15.53c.171 1.084.314 2.077.488 3.057a.618.618 0 0 1-.359.706 13.393 13.393 0 0 1-6.61 1.947c-3.685.078-6.95-1.09-9.7-3.629a13.639 13.639 0 0 1-1.588-18.375c1.941-2.514 4.425-4.205 7.486-4.939 3.713-.893 7.271-.418 10.543 1.647 2.726 1.716 4.668 4.073 5.697 7.152 1.129 3.377.962 6.712-.38 9.995-.154.381-.41.722-.56 1.103-.15.381-.469.628-.655 1.108-.387-1.54-.504-3.001-.816-4.424-.185-.858-.019-1.677.045-2.51a10.21 10.21 0 0 0-1.893-6.86 10.362 10.362 0 0 0-6.823-4.346 10.025 10.025 0 0 0-7.947 1.813c-2.631 1.9-4.168 4.52-4.376 7.83-.27 4.176 1.423 7.453 4.862 9.696 3.126 2.044 6.544 2.195 9.985.732a8.835 8.835 0 0 0 2.601-1.703z"/><path fill="#111" d="M6.55 32.015a1.593 1.593 0 0 1-1.661-1.293c-.392-1.489-.528-3.022-.796-4.535-.45-2.537-.874-5.082-1.306-7.622-.478-2.813-.955-5.63-1.428-8.453C.899 7.42.383 4.73.022 2.012-.117.954.416.19 1.394.022a1.781 1.781 0 0 1 2.04 1.454c.31 1.724.58 3.455.87 5.174a5153.937 5153.937 0 0 1 2.358 14.046c.469 2.822.938 5.67 1.442 8.502.115.66.333 1.296-.056 1.945a1.623 1.623 0 0 1-1.499.872zm61.47-1.888c0 1.16-.534 1.79-1.51 1.881-1.03.085-1.773-.517-1.942-1.557a987.105 987.105 0 0 0-.927-5.593c-.323-1.921-.659-3.84-.983-5.762-.391-2.312-.773-4.624-1.172-6.935L60.15 4.164c-.122-.705-.265-1.432-.39-2.15a1.682 1.682 0 0 1 .772-1.759 1.67 1.67 0 0 1 .636-.228c.704-.127 1.8.235 1.982 1.329l1.407 8.27c.312 1.803.643 3.602.95 5.409.434 2.56.85 5.127 1.283 7.688.387 2.288.79 4.577 1.173 6.865.03.178.048.358.056.539zm44.502 2.905a1.764 1.764 0 0 1 1.693 1.456c.272 1.49.509 2.989.758 4.484.307 1.844.598 3.69.921 5.532.186 1.06-.199 1.851-1.128 2.192-.929.341-2.087-.29-2.254-1.242-.389-2.23-.718-4.468-1.102-6.703-.216-1.26-.469-2.516-.615-3.79a1.693 1.693 0 0 1 .411-1.372 1.675 1.675 0 0 1 1.316-.557zM8.698 28.511a1.886 1.886 0 0 1 1.166-1.733 1.87 1.87 0 0 1 2.447 1.029c.093.229.14.473.14.72a2 2 0 0 1-1.855 1.881c-.944.006-1.884-.93-1.898-1.897zm63.479-.005c.093 1.192-.939 1.882-1.823 1.882-.961.023-1.876-.941-1.846-1.931a1.91 1.91 0 0 1 .562-1.29 1.9 1.9 0 0 1 1.291-.552c1.072.005 1.818.779 1.816 1.891zm7.386 6.181a1.789 1.789 0 0 1 1.71 1.108c.093.224.14.463.138.706-.01.497-.213.972-.569 1.32a1.887 1.887 0 0 1-1.329.54c-1.208-.054-1.799-.905-1.857-1.851-.059-.997.853-1.825 1.907-1.823zm-10.415 1.569a1.837 1.837 0 0 1-1.745-1.143 1.85 1.85 0 0 1 1.06-2.433 1.83 1.83 0 0 1 .725-.114 1.87 1.87 0 0 1 1.324.543c.353.35.553.825.557 1.322a1.91 1.91 0 0 1-1.921 1.825zm-49.384-1.569a1.771 1.771 0 0 1 1.701 1.109c.09.224.135.463.13.705a1.859 1.859 0 0 1-1.157 1.73 1.845 1.845 0 0 1-.719.135 1.827 1.827 0 0 1-1.691-1.149 1.841 1.841 0 0 1-.134-.707c-.007-1.077.767-1.827 1.87-1.823zM76.23 24.48a1.876 1.876 0 0 1 1.84 1.844 1.847 1.847 0 0 1-1.159 1.72 1.813 1.813 0 0 1-.717.13 1.806 1.806 0 0 1-1.706-1.126 1.822 1.822 0 0 1-.135-.708c.035-1.105.873-1.917 1.877-1.86zM13.94 36.834a1.835 1.835 0 0 1 1.689 1.154 1.848 1.848 0 0 1-1.017 2.4 1.836 1.836 0 0 1-2.394-1.02 1.85 1.85 0 0 1 .417-2.006 1.836 1.836 0 0 1 1.305-.528zm64.961-6.237a1.795 1.795 0 0 1 1.101-1.712c.223-.093.462-.139.703-.136a1.83 1.83 0 0 1 1.752 1.122c.097.227.146.472.145.72a1.934 1.934 0 0 1-.57 1.323c-.355.35-.83.55-1.327.558-.85-.005-1.924-.84-1.804-1.875zm-67.694 3.832a1.744 1.744 0 0 1-1.101 1.707 1.73 1.73 0 0 1-.707.118 1.834 1.834 0 0 1-1.688-1.155 1.849 1.849 0 0 1 1.018-2.4c.224-.09.464-.135.705-.133 1.051.016 1.776.776 1.773 1.863zm9.709-5.681a1.884 1.884 0 0 1 1.876 1.863 1.912 1.912 0 0 1-.561 1.29c-.344.342-.805.54-1.29.554-.994 0-1.923-.922-1.9-1.881a1.91 1.91 0 0 1 .576-1.287 1.9 1.9 0 0 1 1.299-.538zm55.879 3.733c0 1.11-.753 1.881-1.84 1.867a1.837 1.837 0 0 1-1.751-1.134 1.851 1.851 0 0 1 1.05-2.439 1.85 1.85 0 0 1 .725-.117 1.74 1.74 0 0 1 1.7 1.114c.087.226.126.467.116.709zm-63.479.021a1.8 1.8 0 0 1 1.111-1.71 1.79 1.79 0 0 1 .705-.134 1.836 1.836 0 0 1 1.772 1.095 1.85 1.85 0 0 1-.99 2.46 1.847 1.847 0 0 1-.72.136 1.793 1.793 0 0 1-1.747-1.124 1.806 1.806 0 0 1-.13-.723zm58.588 6.162c0-1.089.72-1.822 1.795-1.83a1.804 1.804 0 0 1 1.331.517 1.814 1.814 0 0 1 .545 1.323 1.843 1.843 0 0 1-1.127 1.706 1.83 1.83 0 0 1-.702.142 1.765 1.765 0 0 1-1.725-1.136 1.78 1.78 0 0 1-.117-.722zM18.213 26.39a1.726 1.726 0 0 1-1.13 1.686c-.227.083-.47.116-.71.099-.486 0-.95-.194-1.294-.538a1.84 1.84 0 0 1-.536-1.297 1.887 1.887 0 0 1 1.216-1.73c.234-.088.483-.128.733-.118 1.044.018 1.743.792 1.721 1.898zM132.988 3a10.01 10.01 0 0 1 7.076 2.923A9.99 9.99 0 0 1 143 12.988c0 5.52-4.472 10.007-9.971 10.012a10.02 10.02 0 0 1-7.083-2.915 9.993 9.993 0 0 1-.029-14.142A10.013 10.013 0 0 1 132.988 3zm-4.776 15.134h1.454c.79 0 1.396-.34 1.79-1.02a1443.85 1443.85 0 0 0 3.679-6.364c.387-.674.379-1.363 0-2.043-.51-.908-1.021-1.815-1.535-2.721a.97.97 0 0 0-.32-.366c-.333-.207-.703-.07-.944.354a2419.75 2419.75 0 0 0-2.15 3.783l-3.241 5.697c-.326.575-.663 1.144-.962 1.732-.234.46-.017.843.489.937.074.01.149.014.224.01l1.516.001zm8.912 0h2.088c.824 0 1.086-.45.678-1.164a2306.87 2306.87 0 0 0-1.73-3.032 9.403 9.403 0 0 0-.489-.824c-.291-.405-.709-.406-1.028-.027a1.645 1.645 0 0 0-.162.236c-.122.204-.239.41-.359.619-.601 1.036-1.206 2.069-1.804 3.107-.336.584-.056 1.072.616 1.087h.163l2.027-.002z"/><path fill="#5F5F5F" d="M158.867 0v8.873l-7.367 3.35L158.867 0z"/><path fill="#404040" d="M158.867 8.873v7.703l-7.367-4.352 7.367-3.351z"/><path fill="#000" d="m166.231 12.224-7.364 4.352V8.873l7.364 3.35z"/><path fill="#2B2B2B" d="m166.231 12.223-7.364-3.35V0l7.364 12.223zm-.008 1.377L158.874 24l-.007-5.25v-.778l7.356-4.37z"/><path fill="#5F5F5F" d="m151.507 13.622 7.367 10.379v-6.027l-7.367-4.352z"/><path fill="#111" d="M177.856 5.065 183.202 2l5.345 3.065-1.964 1.133-3.381-1.932-3.382 1.932-1.964-1.133zm10.691 3.865-1.964-1.132-3.381 1.932-3.382-1.932-1.964 1.132v2.266l3.382 1.933v3.865l1.964 1.133 1.963-1.133v-3.865l3.382-1.933V8.93zm0 6.123v-2.266l-1.964 1.133v2.266l1.964-1.133zm1.393.8-3.382 1.932v2.266l5.345-3.066v-6.122l-1.963 1.133v3.865-.008zm-1.964-8.855 1.964 1.133v2.265l1.963-1.132V6.998l-1.963-1.133-1.964 1.133zM181.238 18.6v2.266L183.202 22l1.963-1.133v-2.266l-1.963 1.133-1.964-1.133zm-3.382-3.548 1.964 1.133V13.92l-1.964-1.133v2.266zm3.382-8.063 1.964 1.132 1.963-1.132-1.963-1.133-1.964 1.133zm-4.774 1.132 1.963-1.132-1.963-1.133L174.5 6.99v2.265l1.964 1.133V8.122zm0 3.866-1.964-1.133v6.122l5.345 3.066v-2.266l-3.381-1.933V11.98v.009z"/></svg>