<svg xmlns="http://www.w3.org/2000/svg" width="160" height="50" fill="none"><g fill="#111" clip-path="url(#a)"><path d="M64.685 19.547h-2.66v17.512h2.66V19.547zm11.918-7.418H54.918v2.682h21.685V12.13zm-7.112 7.418h-2.66v17.512h2.66V19.547zm73.498 17.532h2.685V26.53l-2.685-3.008V37.08z"/><path d="M157.125 12.13v19.554l-18.989-21.276v26.67h2.678v-19.56L159.815 38.8V12.13h-2.69zm-36.372-.013c-6.825 0-12.374 5.593-12.374 12.474 0 6.88 5.549 12.474 12.374 12.474s12.374-5.594 12.374-12.474c0-6.875-5.549-12.474-12.374-12.474zm0 22.26c-5.351 0-9.707-4.386-9.707-9.786 0-5.4 4.35-9.786 9.707-9.786 5.351 0 9.707 4.385 9.707 9.786 0 5.394-4.356 9.786-9.707 9.786z"/><path d="M120.753 22.797c-.983 0-1.78.803-1.78 1.794 0 .99.797 1.794 1.78 1.794s1.779-.803 1.779-1.794c0-.99-.796-1.794-1.779-1.794zm-17.029-3.015c0-4.216-3.38-7.647-7.532-7.647H82.039v24.948h2.642V14.841h11.511c2.666 0 4.836 2.217 4.836 4.941 0 2.713-2.14 4.918-4.782 4.948l-9.39-.006v12.36H89.5V27.43h6.19l5.057 9.647h3.074L98.54 27.05c3.051-1.021 5.184-3.993 5.184-7.268zM36.623 7.187.563.5 19.54 48.633l26.437-32.475-9.353-8.97zm-.575 2.948 5.519 5.286-15.088 2.755 9.57-8.04zm-12.847 7.49L7.298 4.33l25.988 4.82L23.2 17.626zm-1.138 2.357L19.474 41.59 5.494 6.118l16.569 13.864zm2.396 1.141 16.707-3.05-19.157 23.535 2.45-20.485z"/></g><defs><clipPath id="a"><path fill="#fff" d="M0 .5h160v49H0z"/></clipPath></defs></svg>