<svg xmlns="http://www.w3.org/2000/svg" width="196" height="48" fill="none"><g clip-path="url(#a)"><mask id="b" width="196" height="35" x="0" y="7" maskUnits="userSpaceOnUse" style="mask-type:luminance"><path fill="#fff" d="M195.5 7.5H.5v34h195v-34z"/></mask><g mask="url(#b)"><path fill="#111" d="M6.208 12.713 15.3 7.5l9.09 5.213-3.339 1.927-5.75-3.287-5.752 3.287-3.34-1.927zm18.182 6.574-3.34-1.927-5.75 3.287-5.752-3.287-3.34 1.927v3.853l5.752 3.287V33l3.34 1.927L18.637 33v-6.573l5.752-3.287v-3.853zm0 10.412v-3.853l-3.34 1.927v3.853l3.34-1.927zm2.369 1.36-5.752 3.287v3.853l9.091-5.213V22.573l-3.34 1.927v6.573-.014zM23.419 16l3.34 1.927v3.853l3.34-1.927V16l-3.34-1.927L23.419 16zM11.96 35.734v3.853l3.34 1.927 3.34-1.927v-3.853l-3.34 1.927-3.34-1.927zM6.21 29.7l3.339 1.927v-3.854l-3.34-1.926V29.7zm5.75-13.713 3.34 1.927 3.34-1.927-3.34-1.927-3.34 1.927zm-8.12 1.927 3.34-1.927-3.34-1.927L.5 15.986v3.853l3.34 1.927v-3.853zm0 6.573L.5 22.559v10.413l9.09 5.213v-3.853l-5.75-3.287v-6.573.014zm52.618 4.349v-.057c0-2.535-1.356-3.81-3.568-4.646 1.356-.751 2.512-1.941 2.512-4.08v-.057c0-2.975-2.398-4.888-6.294-4.888H40.26v18.927h9.062c4.296 0 7.136-1.728 7.136-5.185v-.014zm-5.223-8.09c0 1.403-1.17 1.998-3.026 1.998h-3.867v-3.995h4.138c1.77 0 2.755.709 2.755 1.941v.057zm1.056 7.566c0 1.402-1.113 2.054-2.969 2.054h-4.98V26.2h4.852c2.155 0 3.111.78 3.111 2.054v.057h-.014zM77.12 34.02V15.107h-4.138v11.646l-8.934-11.646h-3.867v18.927h4.138V22.007l9.234 12.027h3.567v-.014zm21.05-5.185v-.057c0-2.535-1.356-3.81-3.568-4.646 1.356-.751 2.498-1.941 2.498-4.08v-.057c0-2.975-2.398-4.888-6.294-4.888H81.96v18.927h9.062c4.31 0 7.136-1.728 7.136-5.185l.014-.014zm-5.223-8.09c0 1.403-1.17 1.998-3.025 1.998h-3.868v-3.995h4.139c1.77 0 2.754.709 2.754 1.941v.057zm1.056 7.566c0 1.402-1.113 2.054-2.968 2.054h-4.98V26.2h4.851c2.155 0 3.111.78 3.111 2.054v.057h-.014zm29.441 2.366-2.155-2.168c-1.627 1.516-3.125 2.465-5.465 2.465-3.654 0-6.294-3.032-6.294-6.757 0-3.726 2.64-6.701 6.294-6.701 2.183 0 3.81.949 5.337 2.352l2.155-2.465c-1.827-1.729-3.953-2.947-7.464-2.947-5.78 0-9.833 4.406-9.833 9.817 0 5.412 4.139 9.761 9.69 9.761 3.568 0 5.752-1.303 7.735-3.357zm16.241-4.944v7.975h3.354V14.796h-3.354v7.862h-9.091v-7.862h-3.354v18.926h3.354v-7.975h9.091v-.014zm18.381-11.079h-3.111l-8.392 19.054h3.426l1.955-4.575h9.019l1.941 4.575h3.539l-8.391-19.054h.014zM159.75 26.2h-6.565l3.268-7.565 3.297 7.565zm10.432-11.404v18.926h3.354V14.796h-3.354zm22.035 13.076L182 14.796h-3.112v18.926h3.297V20.25l10.518 13.458h2.811V14.796h-3.296v13.076z"/></g></g><defs><clipPath id="a"><path fill="#fff" d="M.5 0h195v48H.5z"/></clipPath></defs></svg>