<svg xmlns="http://www.w3.org/2000/svg" width="189" height="50" fill="none"><path fill="#656565" d="M96.342 32.653c-1.056-.415-1.973-1.038-2.819-1.87a10.818 10.818 0 0 1-1.904-2.77c-.422-1.04-.704-2.217-.704-3.394 0-1.178.212-2.286.704-3.394.424-1.04 1.058-1.94 1.904-2.77.775-.762 1.763-1.385 2.82-1.87 1.057-.416 2.255-.694 3.453-.694 1.199 0 2.327.21 3.455.693a7.432 7.432 0 0 1 2.748 1.87 8.328 8.328 0 0 1 1.834 2.77 8.154 8.154 0 0 1 .704 3.395 8.154 8.154 0 0 1-.704 3.394c-.424 1.039-1.058 1.94-1.904 2.77a11.063 11.063 0 0 1-2.819 1.87c-1.058.416-2.256.693-3.454.693-1.128 0-2.256-.207-3.314-.692v-.001zm-1.269-18.838c-1.409.622-2.748 1.454-3.806 2.562a12.408 12.408 0 0 0-2.608 3.74c-.634 1.455-.916 2.978-.916 4.571 0 1.594.282 3.117.915 4.571.636 1.386 1.481 2.702 2.608 3.741a12.656 12.656 0 0 0 3.809 2.563c1.48.622 3.03.9 4.651.9 1.622 0 3.172-.278 4.653-.9 1.409-.624 2.748-1.455 3.806-2.563a12.41 12.41 0 0 0 2.608-3.74c.635-1.455.917-2.978.917-4.572 0-1.593-.282-3.116-.916-4.571-.636-1.384-1.481-2.701-2.608-3.74a12.64 12.64 0 0 0-3.808-2.562c-1.48-.624-3.03-.901-4.652-.901-1.622 0-3.172.277-4.653.9zm-25.587 0c-1.41.622-2.75 1.454-3.807 2.562-1.199 1.039-2.044 2.355-2.608 3.74-.634 1.455-.917 3.048-.917 4.571 0 1.594.352 3.117.917 4.64.564 1.387 1.48 2.633 2.608 3.741a12.626 12.626 0 0 0 3.807 2.563c1.48.624 3.101.9 4.651.9 1.622 0 3.173-.347 4.653-.9 1.48-.624 2.75-1.454 3.806-2.493a11.87 11.87 0 0 0 2.608-3.81c.142-.277.283-.623.353-.97h-3.525a8.5 8.5 0 0 1-1.762 2.494c-.775.762-1.761 1.385-2.819 1.87-1.058.416-2.256.692-3.454.692-1.199 0-2.327-.207-3.384-.692-1.057-.416-1.974-1.04-2.819-1.87a10.818 10.818 0 0 1-1.904-2.771c-.422-1.04-.704-2.217-.704-3.394s.211-2.286.704-3.394c.424-1.039 1.057-1.938 1.904-2.77.775-.762 1.762-1.385 2.819-1.87 1.057-.415 2.256-.692 3.454-.692 1.198 0 2.326.206 3.454.692 1.058.416 1.974 1.039 2.82 1.869.704.694 1.27 1.524 1.763 2.494h3.525c-.072-.346-.213-.623-.354-.97-.634-1.384-1.48-2.7-2.607-3.74a13.06 13.06 0 0 0-3.808-2.562c-1.48-.623-3.03-.9-4.652-.9-1.691.069-3.313.346-4.722.97zm45.959 22.716h3.244V12.914h-3.244v23.617zm40.11-15.306c0-3.117 2.609-5.68 5.78-5.68 3.172 0 5.71 2.562 5.71 5.68 0 3.047-2.538 5.609-5.71 5.609-3.242 0-5.78-2.493-5.78-5.61zm-2.891.068c0 4.64 3.878 8.242 8.812 8.242h1.974l-3.807 7.134h3.244l5.992-11.22c.845-1.523 1.198-2.91 1.198-4.224 0-4.642-3.807-8.312-8.671-8.312-4.934-.07-8.742 3.67-8.742 8.38zm22.981 8.242c0-2.701 2.256-4.848 5.005-4.848 2.82 0 5.076 2.148 5.076 4.849 0 2.7-2.256 4.917-5.076 4.917s-5.005-2.216-5.005-4.917v-.001zm1.622-10.803c0-1.803 1.48-3.326 3.312-3.326 1.833 0 3.384 1.523 3.384 3.326 0 1.8-1.551 3.323-3.384 3.323-1.762 0-3.312-1.523-3.312-3.324zm-2.679 0a5.99 5.99 0 0 0 1.198 3.6l.634.9-.845.692c-1.692 1.387-2.679 3.465-2.679 5.612 0 4.155 3.454 7.55 7.683 7.55 4.3 0 7.754-3.395 7.754-7.55 0-2.216-.987-4.225-2.678-5.68l-.846-.693.704-.9c.777-.97 1.199-2.217 1.199-3.532 0-3.256-2.678-5.818-6.062-5.818-3.455-.07-6.062 2.493-6.062 5.818zm-29.748-5.82v18.355c0 1.039-.564 1.663-1.55 1.732-.987 0-1.551-.762-1.762-1.178L134.125 16.1c-.422-.971-1.056-1.732-1.973-2.355-.846-.554-1.833-.831-2.891-.831a5.429 5.429 0 0 0-3.312 1.108c-.07 0-.07.07-.141.07-1.057.9-1.551 2.008-1.551 3.324V36.53h3.454V17.9c0-.97.705-1.663 1.621-1.663.706 0 1.34.416 1.762 1.248l.072.138c1.761 3.81 5.639 12.122 7.965 16.554.775 1.454 2.114 2.148 4.229 2.148 1.269 0 2.467-.348 3.384-1.109 1.057-.831 1.621-1.524 1.621-3.186V12.911h-3.525v.002zM40.724.725H9.358C4.352.724.333 4.67.333 9.589v30.822c0 4.918 4.019 8.865 9.024 8.865h31.366c4.935 0 9.024-3.947 9.024-8.866V9.59c0-4.919-4.018-8.866-9.024-8.866h.001zm-7.612 12.12c3.666 0 6.626 2.91 6.626 6.512 0 1.107-.282 2.146-.776 3.115-.845-.622-1.761-1.177-2.748-1.523a3.181 3.181 0 0 0 .423-1.592c0-1.87-1.551-3.394-3.454-3.394-1.905 0-3.455 1.523-3.455 3.394 0 .553.14 1.107.423 1.592-.987.346-1.974.832-2.75 1.523-.563-.97-.775-2.008-.775-3.116-.14-3.602 2.82-6.51 6.486-6.51zM16.968 37.156c-3.664 0-6.624-2.908-6.624-6.51h3.171c0 1.87 1.552 3.394 3.455 3.394s3.454-1.524 3.454-3.394h3.172c0 3.602-2.96 6.51-6.626 6.51h-.002zm0-9.142c-4.228 0-7.682-3.394-7.682-7.55 0-4.155 3.454-7.618 7.684-7.618s7.754 3.394 7.754 7.618c-.07 4.156-3.525 7.55-7.754 7.55h-.002zm16.144 9.142c-4.23 0-7.754-3.394-7.754-7.55 0-4.224 3.454-7.618 7.754-7.618 4.23 0 7.684 3.394 7.684 7.62 0 4.154-3.454 7.55-7.684 7.55v-.002zm4.581-7.618c0 2.493-2.043 4.432-4.58 4.432-2.538 0-4.583-2.008-4.583-4.432 0-2.494 2.045-4.503 4.582-4.503 2.538.07 4.581 2.078 4.581 4.503zm-16.212-9.074c0 2.494-2.044 4.503-4.582 4.503s-4.582-2.009-4.582-4.503 2.044-4.502 4.582-4.502c2.608 0 4.581 2.008 4.581 4.503v-.001z"/></svg>