<svg xmlns="http://www.w3.org/2000/svg" width="25" height="24" fill="none"><path fill="#fff" d="M10.833 8a3 3 0 1 0 0 6 3 3 0 0 0 0-6zm-1.5 3a1.5 1.5 0 1 1 3 0 1.5 1.5 0 0 1-3 0zm-7-3.75A2.25 2.25 0 0 1 4.583 5h12.5a2.25 2.25 0 0 1 2.25 2.25v7.5a2.25 2.25 0 0 1-2.25 2.25h-12.5a2.25 2.25 0 0 1-2.25-2.25v-7.5zm2.25-.75a.75.75 0 0 0-.75.75V8h.75a.75.75 0 0 0 .75-.75V6.5h-.75zm-.75 6h.75a2.25 2.25 0 0 1 2.25 2.25v.75h8v-.75a2.25 2.25 0 0 1 2.25-2.25h.75v-3h-.75a2.25 2.25 0 0 1-2.25-2.25V6.5h-8v.75a2.25 2.25 0 0 1-2.25 2.25h-.75v3zm14-4.5v-.75a.75.75 0 0 0-.75-.75h-.75v.75c0 .414.336.75.75.75h.75zm0 6h-.75a.75.75 0 0 0-.75.75v.75h.75a.75.75 0 0 0 .75-.75V14zm-14 .75c0 .414.336.75.75.75h.75v-.75a.75.75 0 0 0-.75-.75h-.75v.75zm.902 3.75A2.999 2.999 0 0 0 7.333 20h10.25a4.75 4.75 0 0 0 4.75-4.75V10a3 3 0 0 0-1.5-2.599v7.849a3.25 3.25 0 0 1-3.25 3.25H4.735z"/></svg>