<svg xmlns="http://www.w3.org/2000/svg" width="210" height="48" fill="none"><g fill="#000" clip-path="url(#a)"><path fill-rule="evenodd" d="M52.732 4.26 74.64 26.13 52.732 48V36.252H31.164l21.568-15.87V4.26zm1.259 3.035v13.724L34.998 34.994H53.99v9.971L72.859 26.13 53.991 7.295zM22.85 4.262v11.746h21.515L22.851 32.02v15.978L.905 26.13 22.851 4.262zM2.689 26.13l18.904 18.837v-13.58l18.974-14.12H21.592V7.292L2.688 26.13z" clip-rule="evenodd"/><path d="M104.027 21.671v-4.243H88.78v4.423h8.738l-8.953 9.96v4.495h15.606v-4.458h-9.35l9.206-10.177zm21.467-4.243h-6.652l-6.545 7.012V8.51h-5.106v27.797h5.106v-4.999l2.122-2.229 4.998 7.228h6.257l-7.731-10.932 7.551-7.947zm14.995 3.021-3.812-.72c-1.978-.395-2.948-1.402-2.948-3.056 0-.935.395-1.762 1.186-2.41.791-.682 1.835-1.042 3.057-1.042 1.545 0 2.697.396 3.488 1.187.791.79 1.294 1.69 1.474 2.66l4.746-1.474a8.454 8.454 0 0 0-.899-2.409c-.394-.755-.971-1.51-1.725-2.23-.756-.755-1.727-1.33-2.95-1.761-1.221-.432-2.624-.648-4.171-.648-2.624 0-4.854.827-6.724 2.446-1.833 1.654-2.768 3.667-2.768 6.076 0 2.014.647 3.704 1.905 5.07 1.295 1.367 3.02 2.266 5.214 2.733l3.812.756c1.042.215 1.87.61 2.41 1.186.575.576.899 1.223.899 2.05 0 1.007-.396 1.798-1.187 2.41-.756.61-1.834.934-3.237.934-1.833 0-3.236-.503-4.279-1.474-1.006-.971-1.546-2.194-1.69-3.632l-4.926 1.294a9.992 9.992 0 0 0 .827 2.985c.503.935 1.151 1.87 2.014 2.733.827.827 1.942 1.51 3.344 2.05 1.366.503 2.948.755 4.638.755 2.985 0 5.358-.827 7.156-2.481 1.798-1.69 2.697-3.668 2.697-5.898 0-1.977-.684-3.667-2.014-5.142-1.258-1.51-3.129-2.48-5.537-2.948z"/><path d="m158.467 28.468-5.032-11.04h-5.718l8.018 16.505-4.459 9.817h5.431l11.866-26.322h-5.466l-4.64 11.04zm22.44-11.543a7.414 7.414 0 0 0-3.166.719c-1.007.503-1.761 1.187-2.3 2.122v-2.338h-4.962v18.878h5.105v-10.86c0-1.114.324-2.049.972-2.804.647-.755 1.509-1.114 2.588-1.114 1.188 0 2.05.36 2.625 1.042.575.684.899 1.582.899 2.733v11.003h5.106V24.404c0-2.193-.575-3.991-1.762-5.358-1.186-1.402-2.876-2.121-5.105-2.121zm23.731 12.082c-.251.863-.754 1.618-1.474 2.265-.718.611-1.69.935-2.877.935-1.366 0-2.516-.468-3.451-1.402-.936-.971-1.367-2.266-1.367-3.92s.468-2.913 1.367-3.883c.935-.935 2.049-1.403 3.416-1.403 2.157 0 3.56 1.079 4.17 3.2l4.568-1.546c-.432-1.762-1.402-3.272-2.949-4.495-1.546-1.258-3.487-1.87-5.897-1.87-2.77 0-5.106.935-6.976 2.841-1.87 1.906-2.805 4.28-2.805 7.156 0 2.877.935 5.25 2.841 7.156 1.905 1.906 4.278 2.84 7.12 2.84 2.338 0 4.314-.61 5.825-1.87 1.547-1.258 2.517-2.732 2.984-4.494l-4.495-1.51z"/></g><defs><clipPath id="a"><path fill="#fff" d="M.905 0h208.189v48H.905z"/></clipPath></defs></svg>