<svg xmlns="http://www.w3.org/2000/svg" width="64" height="64" fill="none"><rect width="64" height="64" fill="#F4F4F4" rx="32"/><g clip-path="url(#a)"><path fill="#343434" d="m31.733 8-.322 1.094v31.738l.322.322 14.732-8.709L31.733 8z"/><path fill="#8C8C8C" d="M31.733 8 17 32.445l14.733 8.709V8z"/><path fill="#3C3C3B" d="m31.733 43.943-.182.221V55.47l.182.53 14.741-20.761-14.741 8.704z"/><path fill="#8C8C8C" d="M31.733 56V43.943L17 35.239l14.733 20.76z"/><path fill="#141414" d="m31.732 41.153 14.733-8.708-14.733-6.697v15.405z"/><path fill="#393939" d="m17 32.445 14.733 8.708V25.75L17 32.444z"/></g><defs><clipPath id="a"><path fill="#fff" d="M17 8h29.474v48H17z"/></clipPath></defs></svg>