<svg xmlns="http://www.w3.org/2000/svg" width="188" height="48" fill="none"><g clip-path="url(#a)"><path fill="#5F5F5F" d="M14.926.672v17.375L.5 24.61 14.926.672z"/><path fill="#111" d="M53.5 27.698a.594.594 0 0 1-.595.586h-11.45c.285 2.828 2.414 5.409 5.409 5.409 2.046 0 3.566-.782 4.709-2.415.165-.225.413-.369.73-.233a.55.55 0 0 1 .323.414.578.578 0 0 1-.075.399c-1.15 2.009-3.446 2.994-5.694 2.994-3.852 0-6.598-3.446-6.598-7.131 0-3.686 2.746-7.132 6.598-7.132 3.852-.008 6.635 3.43 6.643 7.11v-.002zm-1.226-.556c-.249-2.828-2.415-5.409-5.41-5.409-2.994 0-5.123 2.58-5.408 5.41h10.818zm15.121-6.274a.58.58 0 0 1 .572.572.558.558 0 0 1-.572.572h-3.069v12.044a.587.587 0 0 1-.572.572.586.586 0 0 1-.572-.572V22.012h-2.949a.558.558 0 0 1-.571-.572c0-.286.248-.572.572-.572h2.948V16.46c0-.279.188-.534.46-.58.383-.06.684.203.684.564v4.424h3.07zM86.12 26.69v7.297a.58.58 0 0 1-.572.572.558.558 0 0 1-.572-.572V26.69c0-2.46-1.391-4.92-4.138-4.92-3.52 0-5.04 3.077-4.837 6.23 0 .082.037.45.037.489v5.477c0 .279-.188.534-.459.58-.383.06-.684-.203-.684-.565v-23.97c0-.286.248-.572.572-.572.323 0 .571.285.571.572v13.564c.986-1.76 2.746-2.949 4.793-2.949 3.362 0 5.289 2.949 5.289 6.064zm20.53 1.007c0 .323-.27.586-.594.586H94.598c.286 2.828 2.414 5.409 5.409 5.409 2.047 0 3.567-.782 4.709-2.415.166-.225.414-.369.731-.233a.554.554 0 0 1 .323.414c.03.188-.023.293-.075.399-1.15 2.009-3.446 2.994-5.695 2.994-3.852 0-6.597-3.446-6.597-7.131 0-3.686 2.745-7.132 6.597-7.132 3.86-.008 6.644 3.43 6.65 7.11v-.002zm-1.234-.556c-.248-2.828-2.415-5.409-5.409-5.409-2.995 0-5.123 2.58-5.41 5.41h10.819zm15.288-5.74c0 .369-.203.572-.534.616-3.363.49-4.875 3.236-4.875 6.433v5.477c0 .279-.188.534-.46.58-.383.06-.684-.203-.684-.565v-12.48c0-.279.188-.534.459-.58.384-.06.685.203.685.565v2.542c.94-1.595 2.828-3.114 4.792-3.114.286-.008.617.203.617.526v.002zm18.808 6.294a.595.595 0 0 1-.595.587h-11.45c.286 2.828 2.415 5.41 5.41 5.41 2.046 0 3.566-.783 4.708-2.416.166-.225.414-.369.73-.233a.55.55 0 0 1 .324.414c.03.188-.023.293-.075.399-1.15 2.009-3.446 2.994-5.695 2.994-3.851 0-6.597-3.445-6.597-7.131 0-3.686 2.746-7.132 6.597-7.132 3.852-.008 6.636 3.43 6.644 7.11l-.001-.002zm-1.225-.555c-.249-2.828-2.415-5.409-5.409-5.409-2.995 0-5.124 2.58-5.41 5.41h10.819zm19.71-5.597v12.51a.58.58 0 0 1-.571.572.558.558 0 0 1-.572-.572v-2.377c-.941 1.889-2.626 3.236-4.755 3.236-3.4 0-5.288-2.95-5.288-6.064v-7.335c0-.286.248-.572.571-.572.324 0 .572.285.572.572v7.335c0 2.46 1.391 4.92 4.138 4.92 3.851 0 4.755-3.603 4.755-7.583v-4.672c0-.332.331-.67.737-.55a.614.614 0 0 1 .413.58zm28.965 5.1v7.335a.582.582 0 0 1-.573.572.558.558 0 0 1-.571-.572v-7.335c0-2.46-1.391-4.875-4.138-4.875-3.446 0-4.755 3.687-4.755 6.553v5.657a.58.58 0 0 1-.572.572.558.558 0 0 1-.572-.572v-7.335c0-2.46-1.391-4.875-4.138-4.875-3.483 0-4.92 2.746-4.792 6.395 0 .082.037.248 0 .285v5.515c0 .279-.189.534-.467.58-.383.06-.685-.203-.685-.565V21.461c0-.279.19-.534.46-.58.384-.06.685.203.685.565v2.091c.985-1.76 2.745-2.912 4.793-2.912 2.331 0 4.138 1.475 4.874 3.649.941-2.13 2.784-3.649 5.16-3.649 3.363 0 5.29 2.904 5.29 6.019"/><path fill="#404040" d="M14.926 18.047v15.085L.5 24.609l14.426-6.562z"/><path fill="#000" d="m29.347 24.609-14.422 8.523V18.047l14.422 6.562z"/><path fill="#2A2A2A" d="m29.347 24.609-14.422-6.562V.672L29.348 24.61zm-.016 2.698L14.941 47.67l-.016-10.28v-1.525l14.406-8.558z"/><path fill="#5F5F5F" d="M.514 27.346 14.94 47.67V35.869L.514 27.346z"/></g><defs><clipPath id="a"><path fill="#fff" d="M.5 0h187v48H.5z"/></clipPath></defs></svg>