<svg xmlns="http://www.w3.org/2000/svg" width="188" height="26" fill="none"><path fill="#000" d="M9.493 26c-2.79 0-5.075-.674-6.856-2.022C.879 22.606 0 20.656 0 18.128c0-.53.059-1.18.176-1.95.305-1.734.738-3.816 1.3-6.247C3.072 3.31 7.185 0 13.818 0c1.805 0 3.422.313 4.852.939 1.43.602 2.555 1.517 3.375 2.744.82 1.204 1.231 2.648 1.231 4.334 0 .505-.058 1.143-.176 1.914a83.806 83.806 0 0 1-1.265 6.247c-.82 3.298-2.239 5.765-4.255 7.403C15.563 25.194 12.87 26 9.493 26zm.492-5.2c1.313 0 2.426-.397 3.34-1.192.938-.794 1.606-2.01 2.004-3.647.54-2.263.95-4.237 1.23-5.922a8.393 8.393 0 0 0 .141-1.553c0-2.19-1.113-3.286-3.34-3.286-1.312 0-2.437.397-3.375 1.192-.914.794-1.57 2.01-1.969 3.647-.422 1.613-.844 3.587-1.266 5.922a7.92 7.92 0 0 0-.14 1.517c0 2.214 1.125 3.322 3.375 3.322zm16.858 4.839c-.258 0-.457-.084-.598-.253a.883.883 0 0 1-.106-.65l4.852-23.472c.047-.265.176-.482.387-.65.211-.169.434-.253.668-.253h9.352c2.602 0 4.688.554 6.258 1.661 1.594 1.108 2.391 2.709 2.391 4.803 0 .602-.07 1.228-.21 1.878-.587 2.768-1.77 4.815-3.552 6.139-1.758 1.324-4.172 1.986-7.242 1.986h-4.747l-1.617 7.908a1.038 1.038 0 0 1-.387.65c-.21.169-.433.253-.668.253h-4.781zm12.446-13.795c.984 0 1.84-.276 2.566-.83.75-.554 1.243-1.348 1.477-2.383.07-.41.105-.77.105-1.084 0-.698-.199-1.228-.597-1.589-.399-.385-1.078-.577-2.04-.577h-4.218l-1.337 6.463h4.044zM57.97 25.639c-.259 0-.458-.084-.599-.253a.798.798 0 0 1-.14-.65l3.902-18.705h-6.258c-.258 0-.457-.085-.598-.253a.883.883 0 0 1-.105-.65l.809-3.864c.047-.265.175-.482.386-.65.211-.169.434-.253.668-.253h18.916c.258 0 .457.084.597.253a.79.79 0 0 1 .141.433.697.697 0 0 1-.035.217l-.809 3.864a1.038 1.038 0 0 1-.387.65.966.966 0 0 1-.668.253h-6.223l-3.902 18.705a1.038 1.038 0 0 1-.387.65 1.055 1.055 0 0 1-.668.253h-4.64zm18.616 0c-.258 0-.457-.084-.598-.253a.798.798 0 0 1-.14-.65l4.887-23.472c.046-.265.175-.482.386-.65.211-.169.434-.253.668-.253h4.747c.258 0 .457.084.597.253a.788.788 0 0 1 .141.433.7.7 0 0 1-.035.217l-4.852 23.472a1.038 1.038 0 0 1-.387.65c-.21.169-.433.253-.668.253h-4.746zm13.387 0c-.257 0-.457-.084-.597-.253-.14-.168-.188-.385-.14-.65l4.851-23.472c.047-.265.176-.482.387-.65a1.1 1.1 0 0 1 .703-.253h3.797c.563 0 .926.265 1.09.795l3.832 11.375 8.544-11.375a2.08 2.08 0 0 1 .492-.542c.234-.169.516-.253.844-.253h3.832c.258 0 .457.084.598.253a.79.79 0 0 1 .141.433.684.684 0 0 1-.036.217l-4.852 23.472a1.033 1.033 0 0 1-.386.65 1.056 1.056 0 0 1-.668.253h-4.255c-.257 0-.457-.084-.597-.253a.879.879 0 0 1-.106-.65l2.743-13.325-5.38 7.33c-.234.265-.457.47-.668.615a1.275 1.275 0 0 1-.738.216h-1.828c-.492 0-.832-.277-1.02-.83l-2.496-7.656-2.813 13.65a1.038 1.038 0 0 1-.387.65c-.21.169-.433.253-.668.253h-4.219zm31.034 0c-.258 0-.457-.084-.597-.253a.797.797 0 0 1-.141-.65l4.887-23.472c.047-.265.176-.482.387-.65.21-.169.433-.253.668-.253h4.746c.258 0 .458.084.598.253.094.144.14.289.14.433a.682.682 0 0 1-.035.217l-4.851 23.472a1.036 1.036 0 0 1-.388.65c-.21.169-.433.253-.668.253h-4.746zm22.072.361c-2.063 0-3.832-.289-5.309-.867-1.454-.577-2.555-1.348-3.305-2.31-.727-.964-1.09-2.035-1.09-3.215 0-.192.024-.481.07-.866a1.1 1.1 0 0 1 .282-.542.827.827 0 0 1 .563-.217h4.499c.282 0 .493.049.633.145.164.096.328.264.493.505.164.626.539 1.144 1.125 1.553.609.41 1.441.614 2.496.614 1.336 0 2.415-.217 3.234-.65.821-.433 1.314-1.023 1.477-1.77.024-.096.035-.24.035-.433 0-.602-.362-1.071-1.089-1.408-.727-.361-2.063-.783-4.008-1.264-2.274-.506-3.997-1.264-5.169-2.275-1.172-1.035-1.757-2.383-1.757-4.044 0-.578.07-1.168.21-1.77.469-2.239 1.63-3.996 3.481-5.272C141.825.638 144.239 0 147.193 0c1.781 0 3.364.325 4.746.975 1.383.65 2.449 1.48 3.2 2.492.773.987 1.159 1.974 1.159 2.96 0 .29-.011.494-.035.615a.974.974 0 0 1-.316.541.705.705 0 0 1-.527.217h-4.712c-.515 0-.867-.205-1.054-.614-.024-.554-.306-1.023-.844-1.408-.539-.385-1.243-.578-2.11-.578-1.031 0-1.886.193-2.567.578a2.513 2.513 0 0 0-1.229 1.697c-.024.12-.037.277-.037.47 0 .577.329 1.059.986 1.444.679.361 1.863.734 3.55 1.12 2.626.529 4.536 1.287 5.732 2.274 1.218.987 1.827 2.3 1.827 3.936 0 .554-.07 1.156-.21 1.806-.516 2.456-1.77 4.321-3.763 5.597-1.968 1.252-4.605 1.878-7.91 1.878zm16.548-.361c-.258 0-.457-.084-.598-.253-.14-.168-.188-.385-.14-.65l4.851-23.472c.047-.265.176-.482.388-.65.21-.169.445-.253.703-.253h3.796c.563 0 .926.265 1.091.795l3.832 11.375 8.543-11.375c.118-.193.282-.374.493-.542a1.4 1.4 0 0 1 .843-.253h3.833c.258 0 .457.084.598.253.094.144.14.289.14.433a.682.682 0 0 1-.035.217l-4.852 23.472a1.039 1.039 0 0 1-.387.65 1.056 1.056 0 0 1-.668.253h-4.254c-.258 0-.457-.084-.598-.253a.874.874 0 0 1-.105-.65l2.742-13.325-5.379 7.33c-.234.265-.457.47-.668.615a1.275 1.275 0 0 1-.738.216h-1.829c-.492 0-.832-.277-1.019-.83l-2.496-7.656-2.813 13.65a1.048 1.048 0 0 1-.387.65 1.056 1.056 0 0 1-.668.253h-4.219z"/></svg>