<svg xmlns="http://www.w3.org/2000/svg" width="250" height="60" fill="none"><path fill="#656565" d="M23.355 5.556c12.072-.8 22.494 7.029 25.625 18v.115c.057.171.228.228.4.285h.056c2.05 0 3.53-.342 4.442-.57.057 0 .114-.058.17-.058h.171c.513 0 .912.4.912.914v4.172c-.057.343-.228.628-.513.743-.114 0-.17.057-.285.057-.797.228-2.22.571-3.986.743h-.17c-.172.057-.342.228-.342.4v.114c0 .571 0 1.143-.057 1.714v.057c0 .229.17.4.398.458h.114c1.595-.115 2.734-.343 3.53-.572.058 0 .115-.057.172-.057h.17c.456 0 .855.343.912.8v4.286a.86.86 0 0 1-.57.8c-.057 0-.17.057-.227.057-1.026.286-3.076.743-5.581.857h-.057c-.171 0-.285.114-.399.229 0 0 0 .057-.057.057C44.71 48.7 35.541 55.5 24.835 55.5 10.485 55.5-.96 43.328.064 28.757c1.082-12.458 11.047-22.344 23.29-23.2zm85.817 18.972c2.335 0 4.158.743 5.467 2.171 1.31 1.429 1.936 3.543 1.936 6.23 0 1.885-.398 3.485-1.138 4.856-.741 1.372-1.823 2.4-3.189 3.143-1.367.743-2.962 1.086-4.841 1.086-.911 0-1.822-.114-2.847-.343v7.543h-4.84v-24.4h3.701l.74 2c.741-.8 1.481-1.372 2.221-1.715.854-.4 1.765-.571 2.79-.571zm-84.109-12.8c-10.307 0-18.621 8.4-18.621 18.686S14.812 49.1 25.063 49.1a18.528 18.528 0 0 0 16.8-10.686c.056-.057.056-.172.113-.229v-.057a.43.43 0 0 0-.285-.4h-.113l-.228-.057c-5.353-1.828-10.421-.914-12.642-.343h-.228c-.456 0-.854-.343-.911-.743v-4.628c.057-.286.285-.572.512-.686h.057c1.48-.572 5.752-1.714 13.155.229.512.114 1.025.285 1.537.342.057 0 .171.058.228.058.228 0 .399-.172.399-.343v-.172c0-.343.057-.628.057-.971v-.629c0-.171-.114-.285-.285-.343h-.057c-.57-.114-1.082-.285-1.651-.457l-.228-.057c-5.182-1.829-10.137-.971-12.414-.4-.114.057-.285.057-.4.114h-.056c-.456 0-.854-.343-.911-.742v-4.63a.823.823 0 0 1 .512-.628c.057 0 .114-.057.171-.057 1.538-.571 5.695-1.6 12.756.229h.171a.45.45 0 0 0 .456-.457v-.115c0-.057-.057-.114-.057-.171-2.848-6.172-9.169-10.343-16.458-10.343zM205.24 24.414c5.069 0 7.574 2.857 7.574 8.628v1.086h-11.389c.228 2.914 1.708 4.343 4.442 4.343.854 0 1.708-.114 2.562-.286.855-.171 1.766-.514 2.848-.914l1.139 3.029c-2.563 1.2-4.955 1.771-7.119 1.771-2.676 0-4.783-.8-6.321-2.343-1.537-1.543-2.277-3.714-2.277-6.514 0-2.743.74-4.915 2.22-6.457 1.538-1.6 3.645-2.343 6.321-2.343zm-78.073 0c5.069 0 7.574 2.857 7.574 8.628v1.086h-11.389c.228 2.914 1.708 4.343 4.442 4.343.854 0 1.708-.114 2.562-.286.855-.171 1.766-.514 2.848-.914l1.139 3.029c-2.563 1.2-4.955 1.771-7.119 1.771-2.676 0-4.783-.8-6.321-2.343-1.537-1.543-2.278-3.714-2.278-6.514 0-2.743.741-4.915 2.221-6.457 1.538-1.6 3.645-2.343 6.321-2.343zm40.945-6c3.53 0 6.264 1.028 8.143 3.028 1.879 2 2.847 4.915 2.847 8.686 0 3.829-.911 6.8-2.79 8.857-1.879 2.058-4.613 3.029-8.143 3.029-3.588 0-6.321-1.029-8.201-3.029-1.879-2.057-2.79-4.971-2.79-8.857 0-3.771.968-6.629 2.847-8.686 1.823-2 4.556-3.028 8.087-3.028zm-82.857 0c3.53 0 6.264 1.028 8.143 3.028 1.88 2 2.848 4.915 2.848 8.686 0 3.829-.911 6.8-2.79 8.857-1.88 2.058-4.613 3.029-8.144 3.029-3.587 0-6.32-1.029-8.2-3.029-1.88-2.057-2.79-4.971-2.79-8.857 0-3.771.968-6.629 2.847-8.686 1.765-2 4.499-3.028 8.086-3.028zm137.297 6c2.392 0 4.214.571 5.467 1.771 1.253 1.2 1.936 2.915 1.936 5.143v10.4h-3.986l-.57-2c-.683.743-1.48 1.315-2.334 1.657-.855.4-1.823.572-2.791.572-1.765 0-3.132-.457-4.157-1.372-1.025-.914-1.537-2.114-1.537-3.657 0-1.771.74-3.143 2.22-4.171 1.481-.972 3.588-1.486 6.265-1.486h2.05v-.4c-.057-1.943-1.196-2.971-3.303-2.971-.741 0-1.595.114-2.563.342-.968.229-1.822.515-2.619.857l-1.025-3.257c1.138-.457 2.277-.8 3.53-1.028 1.253-.229 2.335-.4 3.417-.4zm-32.459.057c1.708 0 3.36.4 4.897 1.2l-1.082 3.2c-1.139-.629-2.278-.914-3.303-.914-1.423 0-2.505.457-3.246 1.371-.74.914-1.139 2.172-1.139 3.829s.399 2.914 1.196 3.828c.798.915 1.936 1.372 3.36 1.372 1.196 0 2.392-.286 3.531-.8l.797 3.314c-.797.343-1.594.629-2.506.8-.911.172-1.765.286-2.562.286-2.791 0-4.954-.743-6.435-2.286-1.481-1.486-2.221-3.657-2.221-6.514 0-2.743.74-4.915 2.278-6.458 1.48-1.485 3.644-2.228 6.435-2.228zm-41.628 0c1.766 0 3.132.514 4.1 1.543.968 1.028 1.424 2.514 1.424 4.4V41.67h-4.84V30.642c0-.971-.171-1.714-.57-2.171-.399-.457-1.025-.686-1.879-.686a4.66 4.66 0 0 0-2.164.514c-.683.343-1.196.858-1.651 1.43v11.885h-4.841V24.642h4.043l.513 2.343c1.48-1.657 3.473-2.514 5.865-2.514zm96.011 0c1.766 0 3.132.514 4.1 1.543.968 1.028 1.424 2.514 1.424 4.4V41.67h-4.84V30.642c0-.971-.171-1.714-.57-2.171-.399-.457-1.025-.686-1.879-.686a4.66 4.66 0 0 0-2.164.514c-.683.343-1.196.858-1.651 1.43v11.885h-4.841V24.642h4.043l.513 2.343c1.48-1.657 3.473-2.514 5.865-2.514zm-19.361 9.486h-1.652c-1.367 0-2.449.228-3.189.685-.74.458-1.139 1.143-1.139 2 0 .686.228 1.2.627 1.6.398.343 1.025.572 1.765.572a4.84 4.84 0 0 0 1.993-.457 4.355 4.355 0 0 0 1.595-1.257v-3.143zm-116.968-6c-.854 0-1.594.228-2.22.685-.627.457-1.082 1.143-1.31 1.943V38.3c.626.171 1.082.228 1.423.285.342.057.684.057 1.139.057 1.481 0 2.563-.457 3.36-1.428.797-.971 1.196-2.343 1.196-4.172 0-3.428-1.196-5.085-3.588-5.085zm-22.892-5.658c-1.936 0-3.417.686-4.385 2-.968 1.315-1.48 3.258-1.48 5.83 0 2.628.512 4.628 1.48 5.942.968 1.372 2.449 2.057 4.385 2.057s3.417-.685 4.385-2.057c.968-1.371 1.48-3.371 1.48-5.943 0-2.571-.512-4.514-1.48-5.829-1.025-1.314-2.506-2-4.385-2zm82.857 0c-1.937 0-3.417.686-4.385 2-.968 1.315-1.481 3.258-1.481 5.83 0 2.628.513 4.628 1.481 5.942.968 1.314 2.448 2.057 4.385 2.057 1.936 0 3.416-.685 4.384-2.057.969-1.371 1.481-3.371 1.481-5.943 0-2.571-.512-4.514-1.481-5.829-.968-1.314-2.448-2-4.384-2zm-40.888 5.486c-1.082 0-1.936.286-2.505.857-.627.572-1.025 1.486-1.196 2.686h6.833c-.17-2.4-1.195-3.543-3.132-3.543zm78.016 0c-1.082 0-1.936.286-2.505.857-.627.572-1.025 1.486-1.196 2.686h6.833c-.17-2.4-1.195-3.543-3.132-3.543z"/></svg>