<svg xmlns="http://www.w3.org/2000/svg" width="184" height="48" fill="none"><path fill="#111" d="M71.986 16.828a6.837 6.837 0 0 1 2.692 2.948c.694 1.301 1.041 2.862 1.041 4.598 0 1.735-.341 3.207-1.133 4.509a6.474 6.474 0 0 1-3.037 2.862c-1.303.694-2.866 1.04-4.514 1.04a7.068 7.068 0 0 1-2.693-.52 5.51 5.51 0 0 1-2.258-1.387v9.024h-5.033V16.134h4.342l.434 1.908c1.91-1.561 3.995-2.342 6.165-2.342 1.476 0 2.866.347 3.994 1.128zM69.214 27.58c.869-.78 1.303-1.82 1.303-3.122a4.598 4.598 0 0 0-1.216-3.208c-.781-.867-1.824-1.214-2.953-1.214-.954 0-1.823.172-2.517.606-.696.347-1.216.955-1.65 1.735v3.903a3.684 3.684 0 0 0 1.388 1.821 4.446 4.446 0 0 0 2.432.694 4.613 4.613 0 0 0 3.206-1.215h.007zm9.464-7.72a8.118 8.118 0 0 1 3.208-2.946 10.374 10.374 0 0 1 4.689-1.128c1.736 0 3.3.348 4.688 1.128a8.067 8.067 0 0 1 3.126 3.033c.782 1.301 1.13 2.688 1.13 4.337 0 1.648-.348 3.032-1.13 4.336-.781 1.304-1.737 2.342-3.126 3.033a10.125 10.125 0 0 1-4.689 1.129c-1.737 0-3.3-.347-4.688-1.04a7.54 7.54 0 0 1-3.208-2.946 9.402 9.402 0 0 1 0-8.936zm5.123 7.546c.694.867 1.65 1.214 2.779 1.214a3.613 3.613 0 0 0 2.772-1.214c.694-.78 1.042-1.908 1.042-3.122 0-1.302-.348-2.343-1.042-3.123-.782-.867-1.65-1.301-2.866-1.301-1.129 0-1.997.434-2.772 1.214-.695.868-1.042 1.908-1.042 3.21-.005 1.217.342 2.257 1.124 3.125l.005-.003zM103.68 3.817v28.535h-5.036V3.817h5.036zm20.673 12.747-10.252 23.42h-4.863l3.828-8.413-7.301-15.008h5.731l4.168 9.369 4.168-9.362 4.521-.006zm19.273 0v15.788a6.897 6.897 0 0 1-1.303 4.077 8.718 8.718 0 0 1-3.473 2.862 10.994 10.994 0 0 1-4.776 1.04 12.866 12.866 0 0 1-3.385-.43 15.397 15.397 0 0 1-2.344-1.04 15.955 15.955 0 0 1-2.172-1.648l2.953-3.469a8.497 8.497 0 0 0 2.171 1.561c.839.403 1.76.61 2.691.607 1.303 0 2.345-.347 3.213-.954.869-.606 1.303-1.56 1.303-2.69v-2.256a5.693 5.693 0 0 1-2.257 1.995c-1.043.52-2.259.781-3.647.781a7.34 7.34 0 0 1-3.995-1.127c-1.216-.694-2.17-1.736-2.952-3.033-.695-1.301-1.13-2.688-1.13-4.25 0-1.56.349-3.032 1.13-4.336.782-1.304 1.736-2.342 3.036-3.123a7.061 7.061 0 0 1 3.908-1.128 10.817 10.817 0 0 1 3.473.527c1.042.347 1.823.868 2.345 1.474l.528-1.214 4.683-.014zm-5.123 9.715v-3.9a3.738 3.738 0 0 0-1.65-1.823 5.394 5.394 0 0 0-2.692-.694 4.552 4.552 0 0 0-3.126 1.215c-.868.78-1.303 1.821-1.303 3.122a4.453 4.453 0 0 0 1.303 3.21 4.274 4.274 0 0 0 3.126 1.3c1.996-.086 3.472-.867 4.341-2.428l.001-.002zm9.29-6.419c.781-1.301 1.824-2.255 3.213-3.032a10.397 10.397 0 0 1 4.689-1.128c1.737 0 3.3.347 4.689 1.128a8.072 8.072 0 0 1 3.126 3.032 8.944 8.944 0 0 1 1.128 4.337c0 1.648-.347 3.032-1.128 4.336a7.051 7.051 0 0 1-3.126 3.033 10.118 10.118 0 0 1-4.689 1.127c-1.737 0-3.3-.346-4.689-1.04a7.55 7.55 0 0 1-3.213-2.948c-.782-1.302-1.129-2.776-1.129-4.598a8.2 8.2 0 0 1 1.129-4.247zm5.036 7.546c.695.868 1.65 1.214 2.772 1.214a3.616 3.616 0 0 0 2.772-1.214c.696-.78 1.043-1.908 1.043-3.122 0-1.302-.348-2.343-1.043-3.122a3.61 3.61 0 0 0-2.772-1.215c-1.129 0-1.997.434-2.772 1.215-.775.78-1.129 1.907-1.129 3.122.087 1.217.434 2.257 1.129 3.125v-.003zm29.608-10.316c1.043.868 1.476 1.996 1.563 3.384v11.881h-5.123v-9.977c-.088-1.561-.87-2.342-2.345-2.342-1.128 0-2.084.52-2.772 1.647-.688 1.128-1.041 2.516-1.041 4.164v6.504h-5.041V16.563h4.602l.347 2.516a6.557 6.557 0 0 1 2.432-2.429c1.042-.606 2.257-.867 3.648-.867 1.475.002 2.778.436 3.73 1.308zM35.51 16.306c-.868-.527-1.996-.527-2.952 0l-6.774 3.99-4.596 2.596-6.774 3.995c-.867.521-1.997.521-2.951 0l-5.384-3.122a2.994 2.994 0 0 1-1.477-2.514v-6.16a2.808 2.808 0 0 1 1.477-2.514l5.297-3.032c.868-.52 1.997-.52 2.953 0l5.296 3.032a2.988 2.988 0 0 1 1.476 2.515v3.99l4.603-2.689v-3.99a2.811 2.811 0 0 0-1.477-2.516L14.414 4.17c-.867-.527-1.997-.527-2.951 0L1.476 9.887A2.817 2.817 0 0 0 0 12.403V23.94a2.808 2.808 0 0 0 1.476 2.513l9.987 5.725a2.99 2.99 0 0 0 2.951 0l6.774-3.903 4.602-2.69 6.773-3.902c.869-.52 1.997-.52 2.953 0l5.296 3.032a2.99 2.99 0 0 1 1.476 2.515v6.159a2.805 2.805 0 0 1-1.476 2.514l-5.301 3.128c-.869.52-1.998.52-2.953 0l-5.296-3.033a2.994 2.994 0 0 1-1.478-2.516v-3.996l-4.596 2.694v3.99a2.81 2.81 0 0 0 1.476 2.514l9.986 5.725a2.99 2.99 0 0 0 2.952 0l9.986-5.725a2.991 2.991 0 0 0 1.476-2.514V24.633a2.81 2.81 0 0 0-1.476-2.516l-10.077-5.81z"/></svg>