<svg xmlns="http://www.w3.org/2000/svg" width="162" height="44" fill="none"><path fill="#000" d="M61.68 12.237c-3 0-5.3 1.707-5.3 4.247 0 2.451 1.949 3.305 4.38 3.765l3.067.503c4.052.679 6.878 2.54 6.878 6.983 0 4.641-3.812 7.334-8.653 7.334-4.38 0-8.499-2.583-9.09-7.618a.714.714 0 0 1 .7-.788h1.84c.351 0 .658.262.702.613.438 3.568 3.198 4.99 5.892 4.99 2.957 0 5.301-1.466 5.301-4.421 0-2.627-1.884-3.568-4.38-4.028l-3.024-.526c-4.25-.722-6.922-2.736-6.922-6.632 0-4.488 3.921-7.224 8.63-7.224 3.769 0 7.909 2.123 8.697 7.114a.698.698 0 0 1-.7.81h-1.906a.706.706 0 0 1-.701-.59c-.548-3.328-2.98-4.532-5.411-4.532zm21.204 2.758c4.534 0 7.754 2.43 8.893 6.37.132.438-.219.898-.679.898h-2.147a.684.684 0 0 1-.657-.482c-.788-2.255-2.628-3.524-5.41-3.524-3.79 0-5.914 3.086-5.914 6.786 0 3.7 2.124 6.786 5.914 6.786 2.782 0 4.622-1.292 5.41-3.524.11-.285.373-.482.657-.482h2.125c.46 0 .81.46.68.898-1.227 4.115-4.338 6.348-8.894 6.348-5.827 0-9.55-4.51-9.55-10.026.043-5.538 3.745-10.048 9.572-10.048zM95.216 31.85h4.578V19.177H95.72a.692.692 0 0 1-.701-.7V16.68c0-.394.307-.7.7-.7h5.543c1.161 0 2.125.94 2.125 2.123v.503c1.007-2.43 3.176-3.02 6.549-3.02 1.292 0 2.147.218 2.629.393.284.11.46.372.46.657v1.86c0 .482-.46.81-.92.68-.614-.198-1.446-.373-2.563-.373-3.593 0-6.155 2.452-6.155 6.677v6.37h5.87c.394 0 .701.306.701.7v1.795c0 .394-.307.7-.701.7h-14.04a.692.692 0 0 1-.702-.7V32.55c0-.394.307-.7.701-.7zm20.481-6.829c0-5.516 3.68-10.026 9.616-10.026 5.937 0 9.617 4.51 9.617 10.026s-3.68 10.026-9.617 10.026c-5.936 0-9.616-4.51-9.616-10.026zm9.616 6.786c3.834 0 6.024-3.086 6.024-6.786 0-3.7-2.212-6.786-6.024-6.786-3.833 0-6.023 3.087-6.023 6.786 0 3.7 2.19 6.786 6.023 6.786zm17.59.197h5.52c.394 0 .701.306.701.7v1.642c0 .394-.307.7-.701.7h-8.258a.692.692 0 0 1-.701-.7V12.631h-2.738a.692.692 0 0 1-.701-.7v-1.642c0-.394.307-.7.701-.7h4.074c1.161 0 2.125.94 2.125 2.122v20.293h-.022zm12.201 0h5.52c.394 0 .701.306.701.7v1.642c0 .394-.307.7-.701.7h-8.258a.692.692 0 0 1-.701-.7V12.631h-2.738a.692.692 0 0 1-.701-.7v-1.642c0-.394.307-.7.701-.7h4.074c1.161 0 2.125.94 2.125 2.122v20.293h-.022zM6.13 17.03c-1.709-1.619-2.914-3.699-2.914-6.194v-.263c.132-4.247 3.637-7.662 7.864-7.793h27.03c.702.022 1.271.526 1.271 1.248v22.854c.635.11.92.197 1.511.416.46.175 1.14.547 1.14.547V4.028C41.988 1.86 40.279.109 38.11.109H11.08C5.252.197.543 4.97.543 10.814c0 3.393 1.555 6.305 4.096 8.34.175.132.329.307.789.307.788 0 1.358-.635 1.314-1.314-.022-.569-.263-.766-.613-1.116z"/><path fill="#000" d="M37.41 28.392H16.206a2.584 2.584 0 0 0-2.563 2.583v3.043c.044 1.4 1.249 2.605 2.65 2.605h1.578v-2.605h-1.577V31.04h.854c2.672 0 4.644 2.495 4.644 5.144 0 2.342-2.147 5.363-5.74 5.122-3.197-.218-4.906-3.042-4.906-5.122v-25.83A2.126 2.126 0 0 0 9.021 8.23H6.918v2.627h1.578v25.305c-.088 5.145 3.658 7.75 7.579 7.75l21.357.065a7.799 7.799 0 0 0 7.798-7.793c0-4.29-3.505-7.793-7.82-7.793zm5.148 7.968c-.088 2.758-2.366 4.97-5.148 4.97l-14.851-.066c1.182-1.38 1.905-3.153 1.905-5.079 0-3.043-1.818-5.144-1.818-5.144h14.786a5.14 5.14 0 0 1 5.147 5.144l-.022.175zM31.715 11.361h-15.99V8.734h15.99c.723 0 1.314.591 1.314 1.314 0 .722-.592 1.313-1.314 1.313z"/><path fill="#000" d="M31.715 23.795h-15.99v-2.627h15.99c.723 0 1.314.591 1.314 1.314 0 .722-.592 1.313-1.314 1.313zm2.803-6.217H15.724v-2.627h18.794c.723 0 1.315.591 1.315 1.314 0 .722-.57 1.313-1.315 1.313z"/></svg>