<svg xmlns="http://www.w3.org/2000/svg" width="1015" height="191" fill="none"><path fill="#000" d="M927.308 94.16V70.433c.192-5.167 1.952-6.89 7.118-7.004h9.414a7.962 7.962 0 0 1 8.227 5.587c4.86 11.48 9.874 22.96 14.81 34.441a238.15 238.15 0 0 1 2.028 4.592c.383.919.804 1.646 1.99 1.646s1.607-.727 2.028-1.646c4.593-10.51 9.134-20.97 13.624-31.38l3.827-8.571a6.882 6.882 0 0 1 6.696-4.401h10.94c.76-.08 1.51-.002 2.23.227a5.448 5.448 0 0 1 3.29 2.907c.31.686.48 1.43.49 2.185.06 1.02.06 2.042 0 3.062v45.806c0 2.602-.26 2.908-2.87 2.908h-6.58c-2.18 0-2.64-.765-2.64-2.717V77.168c0-.65 0-1.377-.77-1.607a1.517 1.517 0 0 0-1.612.565 1.533 1.533 0 0 0-.258.545c-1.339 3.061-2.755 6.084-4.133 9.146l-12.016 26.787a24.852 24.852 0 0 1-2.449 4.401 8.079 8.079 0 0 1-6.353 3.827 72.897 72.897 0 0 1-7.653 0 9.57 9.57 0 0 1-7.998-6.621c-4.171-9.069-8.228-18.177-12.322-27.284-1.455-3.177-2.87-6.353-4.325-9.567-.382-.842-.727-1.876-1.951-1.608-1.225.268-.881 1.378-.881 2.182v39.798c0 3.023-.191 3.215-3.214 3.215h-6.352c-2.143 0-2.564-.689-2.564-2.564.267-8.19.229-16.188.229-24.224zm-481.752-1.914V66.645c0-2.564.497-3.138 3.061-3.138h48.141a22.96 22.96 0 0 1 4.554.535 10.522 10.522 0 0 1 9.069 9.338 36.85 36.85 0 0 1 0 9.184 10.552 10.552 0 0 1-3.827 7.654c-.765.688-.918 1.071 0 1.76a10.556 10.556 0 0 1 4.325 8.687 63.857 63.857 0 0 1 0 7.653c-.613 8.228-4.898 12.208-13.394 12.284H448.77c-2.679 0-3.176-.497-3.214-3.176v-25.18zm31.111 17.22h16.188c1.836 0 3.826 0 4.898-1.837a10.168 10.168 0 0 0 .344-8.686c-.918-2.411-3.367-2.603-5.587-2.603h-32.834c-1.339 0-1.569.498-1.53 1.684v9.376c0 1.837.65 2.219 2.296 2.181 5.396-.153 10.83-.115 16.225-.115zm0-22.195h15.307c5.473 0 6.697-1.263 6.697-6.659 0-4.094-1.339-5.663-5.395-5.702h-33.255c-1.339 0-1.76.498-1.76 1.799v8.725c0 1.607.497 1.913 1.99 1.913 5.357-.114 10.829-.076 16.263-.076h.153zm-136.998 5.128V67.486c0-3.52.421-3.826 3.826-3.826h41.636a33.21 33.21 0 0 1 8.227.842 12.437 12.437 0 0 1 9.72 10.14 41.636 41.636 0 0 1 0 15.843 12.244 12.244 0 0 1-9.681 10.639c-1.569.382-1.723.765-.651 2.028 3.827 4.822 7.883 9.72 11.825 14.618.574.727 1.454 1.454.956 2.488-.497 1.033-1.683.65-2.564.689h-8.533a3.833 3.833 0 0 1-3.483-1.723c-3.826-4.974-7.653-9.873-11.212-14.809a3.324 3.324 0 0 0-2.908-1.531h-22.77c-1.53 0-1.951.459-1.913 1.952v13.355c0 1.99-.612 2.832-2.641 2.756-2.028-.077-4.821 0-7.232 0-2.411 0-2.832-.766-2.832-2.832.268-8.649.23-17.183.23-25.716zm29.848-17.565h-14.886c-1.798 0-2.449.46-2.372 2.334v13.509c0 1.837.574 2.181 2.219 2.143h27.553a30.21 30.21 0 0 0 3.827-.23 5.472 5.472 0 0 0 5.242-4.975c.236-1.737.3-3.493.192-5.242 0-5.281-2.143-7.424-7.654-7.463l-14.121-.076zm341.846 17.641v-25.83c0-2.564.498-3.138 3.061-3.138h44.429c1.605.018 3.205.171 4.784.459a12.705 12.705 0 0 1 11.098 10.868 41.635 41.635 0 0 1 0 15.843 12.062 12.062 0 0 1-9.567 10.179c-1.952.497-1.493 1.071-.613 2.143l11.481 14.121c.65.842 1.875 1.569 1.339 2.793-.536 1.225-1.913.766-2.908.766h-8.113a3.832 3.832 0 0 1-3.827-1.799c-3.635-4.936-7.424-9.758-11.059-14.656a3.407 3.407 0 0 0-3.062-1.608h-22.348c-1.913 0-2.258.574-2.22 2.335v12.896c0 2.066-.688 2.946-2.831 2.832-2.143-.115-4.669 0-7.003 0-2.335 0-2.832-.574-2.794-2.756.191-8.419.153-16.952.153-25.448zm29.849-17.641h-15.307c-1.799 0-2.258.612-2.22 2.258v13.776c0 1.53.46 1.99 1.952 1.952h23.458a51.78 51.78 0 0 0 8.075-.23 5.47 5.47 0 0 0 5.242-5.472 39.76 39.76 0 0 0 0-4.784c0-5.242-2.066-7.347-7.232-7.424l-13.968-.076zm74.738 9.835V66.3c0-2.105.765-2.908 2.832-2.793 2.066.114 4.668 0 6.964 0 2.296 0 2.832.727 2.832 2.793v30.614a46.84 46.84 0 0 0 .383 5.664 6.541 6.541 0 0 0 5.893 6.085c1.261.251 2.541.391 3.827.42h26.251c5.09-.497 7.654-2.717 7.654-7.653.191-9.031 0-18.1 0-27.132v-8.074c0-1.608.574-2.488 2.258-2.45h8.113c1.683 0 2.257.804 2.257 2.45v35.397a27.92 27.92 0 0 1-1.033 7.348 15.303 15.303 0 0 1-15.307 11.671 255.12 255.12 0 0 1-36.699 0c-10.141-.727-15.536-6.543-16.225-16.646V84.67zm-554.118 24.529h-17.068a2.683 2.683 0 0 0-2.87 1.723c-1.377 2.755-2.908 5.395-4.286 8.151a2.872 2.872 0 0 1-2.946 1.76h-8.955c-2.985 0-3.023-.421-1.645-2.908A2129.87 2129.87 0 0 1 243.54 82.22c2.487-4.516 5.013-9.031 7.462-13.585a10.254 10.254 0 0 1 9.146-5.243 13.55 13.55 0 0 1 14.389 8.457c8.074 15.307 16.646 30.614 24.989 45.577.268.459.497.918.727 1.378.612 1.224.306 1.951-1.187 1.99h-10.064a2.526 2.526 0 0 1-2.334-1.608c-1.493-2.793-3.1-5.472-4.478-8.265a2.908 2.908 0 0 0-3.099-1.761c-5.741.077-11.519.038-17.259.038zm0-9.528h12.284c1.224 0 1.837 0 1.033-1.53-3.827-7.195-7.883-14.466-11.825-21.699-.956-1.76-2.028-1.76-2.985 0l-11.442 21.813c-.688 1.224-.344 1.454.919 1.454l12.016-.038zm376.249-36.163h30.614c2.909 0 3.177.306 3.177 3.1v5.663c0 2.717-.307 3.061-2.985 3.061h-22.349c-1.836 0-2.257.536-2.257 2.296v40.258c0 2.755-.192 2.985-2.985 2.985h-6.276c-3.023 0-3.253-.191-3.253-3.176V77.857c0-1.952-.459-2.564-2.487-2.526h-21.928c-2.87 0-3.214-.344-3.214-3.29v-5.473c0-2.679.344-3.061 3.023-3.061h30.92zM564.759 92.17v25.792c0 2.602-.229 2.832-2.87 2.832h-7.003c-2.334 0-2.755-.651-2.717-2.679V66.147c0-1.99.804-2.755 2.756-2.679 1.951.077 4.821 0 7.232 0 2.411 0 2.717.65 2.679 2.68V92.13l-.077.038z"/><path fill="#666363" d="M158.088 121.214c.019.281.019.562 0 .842-.765-1.224-1.569-2.411-2.373-3.635l-16.646-25.907-18.177-28.319c-.306-.497-.421-.42-.689 0a1652.717 1652.717 0 0 1-13.356 22.617.92.92 0 0 0 0 1.148l6.544 10.562 18.331 29.657 11.135 18.024-6.505 3.827h-.306l-.23-.383-12.628-19.899-21.201-33.446c-.344-.574-.382-.574-.727 0L85.953 122.44a.882.882 0 0 0 0 .995c2.45 3.827 4.86 7.654 7.31 11.48a1843.326 1843.326 0 0 0 14.044 22.119c1.148 1.837 2.334 3.636 3.52 5.472l1.148 1.799c-.237.207-.529.34-.842.383L87.637 178.31a4.897 4.897 0 0 1-5.051 0c-3.138-1.722-6.2-3.559-9.338-5.319l-19.401-11.174 3.29-5.664 41.1-69.57 17.718-30.041.345-.612a1.493 1.493 0 0 0-.804 0H91.272a2.832 2.832 0 0 1-.803 0c-1.454-.306-2.105.497-2.832 1.645a2872.38 2872.38 0 0 1-20.932 34.441l-25.946 42.86-13.317 22.157-1.033 1.722v.23l-.23.306-7.386-4.21v-.574a52.403 52.403 0 0 0 1.531-2.449l34.977-56.024 24.683-39.569.42-.765h-4.247c-3.023 0-6.008-.23-9.031 0a32.144 32.144 0 0 0-12.82 3.023 18.484 18.484 0 0 0-7.348 6.468 4516.445 4516.445 0 0 1-32.833 50.934l-1.99 3.061V56.465a5.319 5.319 0 0 1 2.793-4.783l14.925-8.649L69.88 19.652l12.17-7.042a5.472 5.472 0 0 1 5.664 0c5.28 2.832 10.561 6.009 15.766 9.032l51.317 29.543a5.928 5.928 0 0 1 3.215 5.51l.076 64.519zm-46.38 43.09-1.148-1.799 1.148 1.799z"/><path fill="#C4C4C4" d="M169.913 56.733v77.34a17.343 17.343 0 0 1-6.008 13.431 24.2 24.2 0 0 1-3.827 2.488c-4.209 2.487-8.495 4.936-12.705 7.386l-14.809 8.572-22.961 13.317L92 189.293a12.356 12.356 0 0 1-4.401 1.224c-2.802.368-5.65.053-8.304-.918a36.049 36.049 0 0 1-5.09-2.717l-12.82-7.309-13.01-7.654v-.421c1.875-3.138 3.826-6.276 5.548-9.413l.268-.307 19.402 11.175c3.138 1.76 6.2 3.597 9.337 5.319a4.897 4.897 0 0 0 5.052 0l23.152-13.585a1.63 1.63 0 0 0 .459-.306c.305-.014.599-.121.842-.307l21.238-12.322a8.857 8.857 0 0 0 2.182-1.416h.306l6.505-3.826h.306l12.399-7.195a4.746 4.746 0 0 0 2.488-4.209v-12.667c.019-.28.019-.561 0-.842V56.695a5.936 5.936 0 0 0-3.215-5.51L103.48 21.642c-5.204-3.023-10.485-6.2-15.766-9.07a5.473 5.473 0 0 0-5.664 0l-12.169 7.08-40.22 23.305-14.924 8.648a5.319 5.319 0 0 0-2.793 4.784v62.721a26.354 26.354 0 0 1-1.531 2.449 2599.217 2599.217 0 0 1-9.95 15.307c0 .191 0 .421-.42.498a.995.995 0 0 1 0-.574c.076-26.89.114-53.818.114-80.784a16.685 16.685 0 0 1 4.477-11.212 24.644 24.644 0 0 1 6.62-4.745l22.77-13.126L57.56 13.185c6.237-3.827 12.513-7.31 18.79-10.907A17.106 17.106 0 0 1 87.024.135a21.048 21.048 0 0 1 8.801 3.521 1392.04 1392.04 0 0 0 12.82 7.386l13.547 7.653 13.662 7.845 13.546 8.036c3.827 2.258 7.922 4.478 11.825 6.812a17.444 17.444 0 0 1 8.725 15.307l-.038.038z"/><path fill="#959595" d="M158.05 134.723a4.755 4.755 0 0 1-2.488 4.21l-12.398 7.194h-.307l-11.135-18.024-18.331-29.658-6.544-10.294a.92.92 0 0 1 0-1.148 2436.884 2436.884 0 0 1 13.356-22.616c.268-.46.383-.536.689 0l18.177 28.318 16.646 25.907c.804 1.225 1.608 2.411 2.373 3.636-.038 4.171.038 8.266-.038 12.475zm-22.004 15.384a8.928 8.928 0 0 1-2.181 1.416l-21.239 12.322a1.49 1.49 0 0 1-.842.306l-1.148-1.799c-1.186-1.836-2.373-3.826-3.521-5.472a3210.017 3210.017 0 0 1-13.93-21.889c-2.448-3.827-4.86-7.654-7.308-11.48a.882.882 0 0 1 0-.995l15.307-26.137c.344-.613.383-.613.727 0l21.2 33.446 12.629 19.899.306.383z"/><path fill="#282727" d="m55.607 96.034-34.976 56.024a52.403 52.403 0 0 1-1.531 2.449v.574L.157 144.405v-7.042c.268 0 .306-.306.421-.497a2597.783 2597.783 0 0 0 9.95-15.307 26.486 26.486 0 0 0 1.53-2.449l1.99-3.062a21522.333 21522.333 0 0 0 32.91-50.858 18.482 18.482 0 0 1 7.348-6.582 32.145 32.145 0 0 1 12.82-3.023H80.71l-.421.766-24.683 39.683zM116.3 55.93l-.345.612-17.718 30.04-40.985 69.494-3.29 5.664-.269.306c-1.836 3.138-3.826 6.276-5.548 9.414v.421l-22.12-12.667.23-.306v-.23l1.187-1.645 13.317-21.966 25.945-43.09c6.99-11.505 13.968-22.985 20.933-34.44.727-1.148 1.378-1.952 2.832-1.646.266.038.537.038.803 0h24.224c.266-.06.544-.048.804.038z"/></svg>